<?xml version="1.0" encoding="utf-8"?>

<!DOCTYPE svg PUBLIC "-//W3C//DTD SVG 1.1//EN" "http://www.w3.org/Graphics/SVG/1.1/DTD/svg11.dtd">
<svg version="1.1" id="Layer_1" xmlns="http://www.w3.org/2000/svg" xmlns:xlink="http://www.w3.org/1999/xlink" x="0px" y="0px"
	 viewBox="0 0 1656.098 1656.098" enable-background="new 0 0 1656.098 1656.098" xml:space="preserve">
<path d="M828.049,220.11C711.477,203.009,665.454,51.956,525.239,44.251c-91.576-5.033-148.704,37.544-203.637,82.425
	c9.697,0,19.394,0,29.091,0c41.006-45.986,169.075-71.806,220.607-16.97c2.446-4.827,4.192-10.354,9.697-12.121
	c-16.49-31.026-67.588-38.189-106.667-38.788c54.592-6.836,105.63,10.676,135.758,36.364c-7.537-5.738-11.295-2.647-19.394-4.849
	c14.388,9.047,16.199,30.669,38.788,31.515c9.413-2.005,3.023-8.492,7.273-12.121c14.315,15.195,47.721,35.746,33.94,63.031
	c1.716-9.799-2.322-13.838-12.121-12.121c-5.561,5.023-9.176,13.44-4.849,21.818c7.986,4.092,15.498,1.438,24.243,0
	c-0.798,15.343,5.85,23.241,14.546,29.091c1.505-9.001,4.356-16.655,7.273-24.243c7.353-0.727,12.912,12.73,19.394,4.849
	c-8.526-26.233-33.055-49.353-41.212-67.879c13.319,13.796,28.415,22.681,38.788,38.788c4.369,6.781,4.199,16.958,9.697,24.243
	c12.79,16.946,63.995,43.937,94.546,50.909c2.352,0.537,4.703,1,7.051,1.392c2.347-0.392,4.698-0.855,7.05-1.392
	c30.55-6.972,81.756-33.964,94.546-50.909c5.498-7.285,5.328-17.462,9.697-24.243c10.373-16.107,25.469-24.992,38.788-38.788
	c-8.158,18.526-32.686,41.646-41.212,67.879c6.482,7.881,12.041-5.576,19.394-4.849c2.916,7.588,5.767,15.241,7.273,24.243
	c8.696-5.85,15.343-13.748,14.546-29.091c8.744,1.438,16.257,4.092,24.243,0c4.327-8.378,0.713-16.795-4.849-21.818
	c-9.799-1.716-13.838,2.322-12.121,12.121c-13.782-27.285,19.624-47.835,33.94-63.031c4.25,3.629-2.141,10.116,7.273,12.121
	c22.589-0.846,24.4-22.468,38.788-31.515c-8.099,2.201-11.857-0.89-19.394,4.849c30.129-25.687,81.167-43.2,135.758-36.364
	c-39.079,0.599-90.177,7.762-106.667,38.788c5.505,1.767,7.251,7.295,9.697,12.121c51.532-54.837,179.601-29.016,220.607,16.97
	c9.697,0,19.394,0,29.091,0c-54.934-44.88-112.061-87.457-203.637-82.425C990.644,51.956,944.621,203.009,828.049,220.11z
	 M1435.988,828.049c17.101-116.572,168.153-162.595,175.859-302.81c5.033-91.576-37.544-148.704-82.425-203.637
	c0,9.697,0,19.394,0,29.091c45.986,41.006,71.806,169.075,16.97,220.607c4.827,2.446,10.354,4.192,12.121,9.697
	c31.026-16.49,38.189-67.588,38.788-106.667c6.836,54.592-10.676,105.63-36.364,135.758c5.738-7.537,2.647-11.295,4.849-19.394
	c-9.047,14.388-30.669,16.199-31.515,38.788c2.005,9.413,8.492,3.023,12.121,7.273c-15.195,14.315-35.746,47.721-63.031,33.94
	c9.799,1.716,13.838-2.322,12.121-12.121c-5.023-5.561-13.44-9.176-21.818-4.849c-4.092,7.986-1.438,15.498,0,24.243
	c-15.343-0.798-23.241,5.85-29.091,14.546c9.001,1.505,16.655,4.356,24.243,7.273c0.727,7.353-12.73,12.912-4.849,19.394
	c26.233-8.526,49.353-33.055,67.879-41.212c-13.796,13.319-22.681,28.415-38.788,38.788c-6.781,4.369-16.958,4.199-24.243,9.697
	c-16.945,12.79-43.937,63.995-50.909,94.546c-0.537,2.352-1,4.703-1.392,7.051c0.392,2.347,0.855,4.698,1.392,7.05
	c6.972,30.55,33.964,81.756,50.909,94.546c7.285,5.498,17.462,5.328,24.243,9.697c16.107,10.373,24.992,25.469,38.788,38.788
	c-18.526-8.158-41.646-32.686-67.879-41.212c-7.881,6.482,5.576,12.041,4.849,19.394c-7.588,2.916-15.241,5.767-24.243,7.273
	c5.85,8.696,13.748,15.343,29.091,14.546c-1.438,8.744-4.092,16.257,0,24.243c8.378,4.327,16.795,0.713,21.818-4.849
	c1.716-9.799-2.322-13.838-12.121-12.121c27.285-13.782,47.835,19.624,63.031,33.94c-3.629,4.25-10.116-2.141-12.121,7.273
	c0.846,22.589,22.468,24.4,31.515,38.788c-2.201-8.099,0.89-11.857-4.849-19.394c25.688,30.129,43.2,81.167,36.364,135.758
	c-0.599-39.079-7.762-90.177-38.788-106.667c-1.767,5.505-7.295,7.251-12.121,9.697c54.837,51.532,29.016,179.601-16.97,220.607
	c0,9.697,0,19.394,0,29.091c44.88-54.934,87.457-112.061,82.425-203.637C1604.142,990.644,1453.089,944.621,1435.988,828.049z
	 M828.049,1435.988c116.572,17.101,162.595,168.153,302.81,175.859c91.576,5.033,148.704-37.544,203.637-82.425
	c-9.697,0-19.394,0-29.091,0c-41.006,45.986-169.075,71.806-220.607,16.97c-2.446,4.827-4.192,10.354-9.697,12.121
	c16.49,31.026,67.588,38.189,106.667,38.788c-54.592,6.836-105.63-10.676-135.758-36.364c7.537,5.738,11.295,2.647,19.394,4.849
	c-14.388-9.047-16.199-30.669-38.788-31.515c-9.413,2.005-3.023,8.492-7.273,12.121c-14.315-15.195-47.721-35.746-33.94-63.031
	c-1.716,9.799,2.322,13.838,12.121,12.121c5.561-5.023,9.176-13.44,4.849-21.818c-7.986-4.092-15.498-1.438-24.243,0
	c0.798-15.343-5.85-23.241-14.546-29.091c-1.505,9.001-4.356,16.655-7.273,24.243c-7.353,0.727-12.912-12.73-19.394-4.849
	c8.526,26.233,33.055,49.353,41.212,67.879c-13.319-13.796-28.415-22.681-38.788-38.788c-4.369-6.781-4.199-16.958-9.697-24.243
	c-12.79-16.945-63.995-43.937-94.546-50.909c-2.352-0.537-4.703-1-7.05-1.392c-2.347,0.392-4.698,0.855-7.051,1.392
	c-30.55,6.972-81.756,33.964-94.546,50.909c-5.498,7.285-5.328,17.462-9.697,24.243c-10.373,16.107-25.469,24.992-38.788,38.788
	c8.158-18.526,32.686-41.646,41.212-67.879c-6.482-7.881-12.041,5.576-19.394,4.849c-2.916-7.588-5.767-15.241-7.273-24.243
	c-8.696,5.85-15.343,13.748-14.546,29.091c-8.744-1.438-16.257-4.092-24.243,0c-4.327,8.378-0.713,16.795,4.849,21.818
	c9.799,1.716,13.838-2.322,12.121-12.121c13.782,27.285-19.624,47.835-33.94,63.031c-4.25-3.629,2.141-10.116-7.273-12.121
	c-22.589,0.846-24.4,22.468-38.788,31.515c8.099-2.201,11.857,0.89,19.394-4.849c-30.129,25.688-81.166,43.2-135.758,36.364
	c39.079-0.599,90.177-7.762,106.667-38.788c-5.505-1.767-7.251-7.295-9.697-12.121c-51.532,54.837-179.601,29.016-220.607-16.97
	c-9.697,0-19.394,0-29.091,0c54.934,44.88,112.061,87.457,203.637,82.425C665.454,1604.142,711.477,1453.089,828.049,1435.988z
	 M220.11,828.049c-17.101,116.572-168.153,162.595-175.859,302.81c-5.033,91.576,37.544,148.704,82.425,203.637
	c0-9.697,0-19.394,0-29.091c-45.986-41.006-71.806-169.075-16.97-220.607c-4.827-2.446-10.354-4.192-12.121-9.697
	c-31.026,16.49-38.189,67.588-38.788,106.667c-6.836-54.592,10.676-105.63,36.364-135.758c-5.738,7.537-2.647,11.295-4.849,19.394
	c9.047-14.388,30.669-16.199,31.515-38.788c-2.005-9.413-8.492-3.023-12.121-7.273c15.195-14.315,35.746-47.721,63.031-33.94
	c-9.799-1.716-13.838,2.322-12.121,12.121c5.023,5.561,13.44,9.176,21.818,4.849c4.092-7.986,1.438-15.498,0-24.243
	c15.343,0.798,23.241-5.85,29.091-14.546c-9.001-1.505-16.655-4.356-24.243-7.273c-0.727-7.353,12.73-12.912,4.849-19.394
	c-26.233,8.526-49.353,33.055-67.879,41.212c13.796-13.319,22.681-28.415,38.788-38.788c6.781-4.369,16.958-4.199,24.243-9.697
	c16.946-12.79,43.937-63.995,50.909-94.546c0.537-2.352,1-4.703,1.392-7.05c-0.392-2.347-0.855-4.698-1.392-7.051
	c-6.972-30.55-33.964-81.756-50.909-94.546c-7.285-5.498-17.462-5.328-24.243-9.697c-16.107-10.373-24.992-25.469-38.788-38.788
	c18.526,8.158,41.646,32.686,67.879,41.212c7.881-6.482-5.576-12.041-4.849-19.394c7.588-2.916,15.241-5.767,24.243-7.273
	c-5.85-8.696-13.748-15.343-29.091-14.546c1.438-8.744,4.092-16.257,0-24.243c-8.378-4.327-16.795-0.713-21.818,4.849
	c-1.716,9.799,2.322,13.838,12.121,12.121c-27.285,13.782-47.835-19.624-63.031-33.94c3.629-4.25,10.116,2.141,12.121-7.273
	c-0.846-22.589-22.468-24.4-31.515-38.788c2.201,8.099-0.89,11.857,4.849,19.394c-25.687-30.129-43.2-81.166-36.364-135.758
	c0.599,39.079,7.762,90.177,38.788,106.667c1.767-5.505,7.295-7.251,12.121-9.697c-54.837-51.532-29.016-179.601,16.97-220.607
	c0-9.697,0-19.394,0-29.091c-44.88,54.934-87.457,112.061-82.425,203.637C51.956,665.454,203.009,711.477,220.11,828.049z
	 M828.049,41.062c-19.834,8.516-36.214,20.057-60.384,20.159c-8.599-1.101-6.369-13.026-14.546-14.546
	c-9.784,10.053-2.145,22.48,4.849,29.091c-8.706,5.03-19.021,8.453-16.97,24.243c15.418,1.68,20.972-6.502,31.515-9.697
	c0.553,4.296-2.444,12.141,4.849,9.697c6.114-16.514,10.475-34.776,29.091-38.788c-10.967,16.509-26.4,28.55-24.243,58.182
	c4.849,0,9.697,0,14.546,0c-1.188-28.215,12.239-47.48,31.293-58.044c19.054,10.564,32.481,29.829,31.293,58.044
	c4.849,0,9.697,0,14.546,0c2.158-29.632-13.275-41.673-24.243-58.182c18.616,4.012,22.977,22.274,29.091,38.788
	c7.292,2.444,4.296-5.401,4.849-9.697c10.543,3.195,16.097,11.377,31.515,9.697c2.051-15.789-8.264-19.212-16.97-24.243
	c6.994-6.611,14.633-19.038,4.849-29.091c-8.177,1.52-5.947,13.445-14.546,14.546C864.263,61.119,847.883,49.578,828.049,41.062z
	 M1615.036,828.049c-8.516-19.834-20.057-36.214-20.159-60.384c1.101-8.599,13.026-6.369,14.546-14.546
	c-10.053-9.784-22.48-2.145-29.091,4.849c-5.03-8.706-8.453-19.021-24.243-16.97c-1.68,15.418,6.502,20.972,9.697,31.515
	c-4.296,0.553-12.141-2.444-9.697,4.849c16.514,6.114,34.776,10.475,38.788,29.091c-16.509-10.967-28.55-26.4-58.182-24.243
	c0,4.849,0,9.697,0,14.546c28.215-1.188,47.48,12.239,58.044,31.293c-10.564,19.054-29.829,32.481-58.044,31.293
	c0,4.849,0,9.697,0,14.546c29.632,2.158,41.673-13.275,58.182-24.243c-4.012,18.616-22.274,22.977-38.788,29.091
	c-2.444,7.292,5.401,4.296,9.697,4.849c-3.195,10.543-11.377,16.097-9.697,31.515c15.789,2.051,19.212-8.264,24.243-16.97
	c6.611,6.994,19.038,14.633,29.091,4.849c-1.52-8.177-13.445-5.947-14.546-14.546
	C1594.979,864.263,1606.52,847.883,1615.036,828.049z M828.049,1615.036c19.834-8.516,36.214-20.057,60.384-20.159
	c8.599,1.101,6.369,13.026,14.546,14.546c9.784-10.053,2.145-22.48-4.849-29.091c8.706-5.03,19.021-8.453,16.97-24.243
	c-15.418-1.68-20.972,6.502-31.515,9.697c-0.553-4.296,2.444-12.141-4.849-9.697c-6.114,16.514-10.475,34.776-29.091,38.788
	c10.967-16.509,26.4-28.55,24.243-58.182c-4.849,0-9.697,0-14.546,0c1.188,28.215-12.239,47.48-31.293,58.044
	c-19.054-10.564-32.481-29.829-31.293-58.044c-4.849,0-9.697,0-14.546,0c-2.158,29.632,13.275,41.673,24.243,58.182
	c-18.616-4.012-22.977-22.274-29.091-38.788c-7.292-2.444-4.296,5.401-4.849,9.697c-10.543-3.195-16.097-11.377-31.515-9.697
	c-2.051,15.789,8.264,19.212,16.97,24.243c-6.994,6.611-14.633,19.038-4.849,29.091c8.177-1.52,5.947-13.445,14.546-14.546
	C791.835,1594.979,808.215,1606.52,828.049,1615.036z M41.062,828.049c8.516,19.834,20.057,36.214,20.159,60.384
	c-1.101,8.599-13.026,6.369-14.546,14.546c10.053,9.784,22.48,2.145,29.091-4.849c5.03,8.706,8.453,19.021,24.243,16.97
	c1.68-15.418-6.502-20.972-9.697-31.515c4.296-0.553,12.141,2.444,9.697-4.849c-16.514-6.114-34.776-10.475-38.788-29.091
	c16.509,10.967,28.55,26.4,58.182,24.243c0-4.849,0-9.697,0-14.546c-28.215,1.188-47.48-12.239-58.044-31.293
	c10.564-19.054,29.829-32.481,58.044-31.293c0-4.849,0-9.697,0-14.546c-29.632-2.158-41.673,13.275-58.182,24.243
	c4.012-18.616,22.274-22.977,38.788-29.091c2.444-7.292-5.401-4.296-9.697-4.849c3.195-10.543,11.377-16.097,9.697-31.515
	c-15.789-2.051-19.212,8.264-24.243,16.97c-6.611-6.994-19.038-14.633-29.091-4.849c1.52,8.177,13.445,5.947,14.546,14.546
	C61.119,791.835,49.578,808.215,41.062,828.049z M828.049,195.889c-23.081-6.294-43.172-20.203-50.687-40.123
	c-17.246-0.279-29.877-4.155-43.637,2.424c16.524,24.773,55.156,45.1,94.324,51.396c39.168-6.296,77.799-26.623,94.324-51.396
	c-13.76-6.579-26.39-2.703-43.637-2.424C871.221,175.686,851.13,189.595,828.049,195.889z M1460.209,828.049
	c6.294-23.081,20.203-43.172,40.123-50.687c0.279-17.246,4.155-29.877-2.424-43.637c-24.773,16.524-45.1,55.156-51.396,94.324
	c6.296,39.168,26.623,77.799,51.396,94.324c6.579-13.76,2.703-26.39,2.424-43.637
	C1480.412,871.221,1466.503,851.13,1460.209,828.049z M828.049,1460.209c23.081,6.294,43.172,20.203,50.687,40.123
	c17.246,0.279,29.877,4.155,43.637-2.424c-16.524-24.773-55.156-45.1-94.324-51.396c-39.168,6.296-77.799,26.623-94.324,51.396
	c13.76,6.579,26.39,2.703,43.637,2.424C784.877,1480.412,804.968,1466.503,828.049,1460.209z M195.889,828.049
	c-6.294,23.081-20.203,43.172-40.123,50.687c-0.279,17.246-4.155,29.877,2.424,43.637c24.773-16.524,45.1-55.156,51.396-94.324
	c-6.296-39.168-26.623-77.799-51.396-94.324c-6.579,13.76-2.703,26.39-2.424,43.637
	C175.686,784.877,189.595,804.968,195.889,828.049z M828.049,70.921c-4.883,4.4-8.965,10.021-11.899,16.967
	c4.4,1.04,8.286,0.727,11.899-0.346c3.613,1.074,7.499,1.387,11.899,0.346C837.014,80.942,832.932,75.322,828.049,70.921z
	 M1585.177,828.049c-4.4-4.883-10.021-8.965-16.967-11.899c-1.04,4.4-0.727,8.286,0.346,11.899
	c-1.073,3.613-1.386,7.499-0.346,11.899C1575.156,837.014,1580.777,832.932,1585.177,828.049z M828.049,1585.177
	c4.883-4.4,8.965-10.021,11.899-16.967c-4.4-1.04-8.286-0.727-11.899,0.346c-3.613-1.073-7.499-1.386-11.899-0.346
	C819.084,1575.156,823.166,1580.777,828.049,1585.177z M70.921,828.049c4.4,4.883,10.021,8.965,16.967,11.899
	c1.04-4.4,0.727-8.286-0.346-11.899c1.074-3.613,1.387-7.499,0.346-11.899C80.942,819.084,75.322,823.166,70.921,828.049z
	 M828.049,168.308c-10.229-5.521-21.048-11.577-36.142-12.541c3.98,15.733,18.473,26.661,36.142,32.124
	c17.668-5.464,32.162-16.391,36.142-32.124C849.097,156.731,838.278,162.787,828.049,168.308z M1487.791,828.049
	c5.521-10.229,11.577-21.048,12.541-36.142c-15.733,3.98-26.661,18.473-32.124,36.142c5.464,17.668,16.391,32.162,32.124,36.142
	C1499.368,849.097,1493.311,838.278,1487.791,828.049z M828.049,1487.791c10.229,5.521,21.047,11.577,36.142,12.541
	c-3.98-15.733-18.473-26.661-36.142-32.124c-17.668,5.464-32.162,16.391-36.142,32.124
	C807.002,1499.368,817.82,1493.311,828.049,1487.791z M168.308,828.049c-5.521,10.229-11.577,21.047-12.541,36.142
	c15.733-3.98,26.661-18.473,32.124-36.142c-5.464-17.668-16.391-32.162-32.124-36.142
	C156.731,807.002,162.787,817.82,168.308,828.049z M828.049,134.731c-0.708-0.262-1.442-0.523-2.202-0.782l0,0
	c-10.962,16.597-5.614,23.312,2.202,24.222c7.816-0.91,13.164-7.625,2.202-24.222l0,0
	C829.491,134.208,828.757,134.469,828.049,134.731z M1521.367,828.049c0.262-0.708,0.523-1.442,0.782-2.202l0,0
	c-16.597-10.962-23.312-5.614-24.222,2.202c0.91,7.816,7.625,13.164,24.222,2.202l0,0
	C1521.89,829.491,1521.629,828.757,1521.367,828.049z M828.049,1521.367c0.708,0.262,1.442,0.523,2.202,0.782l0,0
	c10.962-16.597,5.614-23.312-2.202-24.222c-7.816,0.91-13.164,7.625-2.202,24.222l0,0
	C826.607,1521.89,827.341,1521.629,828.049,1521.367z M134.731,828.049c-0.262,0.708-0.523,1.442-0.782,2.202l0,0
	c16.597,10.962,23.312,5.614,24.222-2.202c-0.91-7.816-7.625-13.164-24.222-2.202l0,0
	C134.208,826.607,134.469,827.341,134.731,828.049z M828.049,92.971c-5.007,1.305-7.776,4.848-11.899,7.038
	c-1.456,12.685,2.094,20.362,11.899,21.787c9.805-1.425,13.355-9.102,11.899-21.787C835.825,97.819,833.056,94.276,828.049,92.971z
	 M1563.127,828.049c-1.305-5.007-4.848-7.776-7.038-11.899c-12.685-1.456-20.362,2.094-21.787,11.899
	c1.425,9.805,9.102,13.355,21.787,11.899C1558.279,835.825,1561.822,833.056,1563.127,828.049z M828.049,1563.127
	c5.007-1.305,7.776-4.848,11.899-7.038c1.456-12.685-2.094-20.362-11.899-21.787c-9.805,1.425-13.355,9.102-11.899,21.787
	C820.273,1558.279,823.042,1561.822,828.049,1563.127z M92.971,828.049c1.305,5.007,4.848,7.776,7.038,11.899
	c12.685,1.456,20.362-2.094,21.787-11.899c-1.425-9.805-9.102-13.355-21.787-11.899C97.819,820.273,94.276,823.042,92.971,828.049z
	 M707.059,129.1c9.602,33.486,63.183,10.628,101.819,16.97c0.371-7.712,5.496-10.664,4.849-19.394
	C775.478,124.792,744.501,130.179,707.059,129.1z M129.1,949.04c33.486-9.602,10.628-63.183,16.97-101.819
	c-7.712-0.371-10.664-5.496-19.394-4.849C124.792,880.62,130.179,911.597,129.1,949.04z M949.04,1526.998
	c-9.602-33.486-63.183-10.628-101.819-16.97c-0.371,7.712-5.496,10.664-4.849,19.394
	C880.62,1531.306,911.597,1525.919,949.04,1526.998z M1526.998,707.059c-33.486,9.602-10.628,63.183-16.97,101.819
	c7.712,0.371,10.664,5.496,19.394,4.849C1531.306,775.478,1525.919,744.501,1526.998,707.059z M842.372,126.676
	c-0.647,8.73,4.478,11.682,4.849,19.394c38.635-6.342,92.216,16.516,101.819-16.97C911.597,130.179,880.62,124.792,842.372,126.676z
	 M126.676,813.726c8.73,0.647,11.682-4.478,19.394-4.849c-6.342-38.635,16.516-92.216-16.97-101.819
	C130.179,744.501,124.792,775.478,126.676,813.726z M813.726,1529.422c0.647-8.73-4.478-11.682-4.849-19.394
	c-38.635,6.342-92.216-16.516-101.819,16.97C744.501,1525.919,775.478,1531.306,813.726,1529.422z M1529.422,842.372
	c-8.73-0.647-11.682,4.478-19.394,4.849c6.342,38.635-16.516,92.216,16.97,101.819
	C1525.919,911.597,1531.306,880.62,1529.422,842.372z M607.664,129.1c-1.578,10.468,4.189,13.588,7.273,19.394
	c16.466,0.303,32.104-0.221,43.637-4.849C652.236,127.391,629.274,123.044,607.664,129.1z M129.1,1048.434
	c10.468,1.578,13.588-4.189,19.394-7.273c0.303-16.466-0.221-32.104-4.849-43.637C127.391,1003.862,123.044,1026.824,129.1,1048.434
	z M1048.434,1526.998c1.578-10.468-4.189-13.588-7.273-19.394c-16.466-0.303-32.104,0.221-43.637,4.849
	C1003.862,1528.707,1026.824,1533.054,1048.434,1526.998z M1526.998,607.664c-10.468-1.578-13.588,4.189-19.394,7.273
	c-0.303,16.466,0.221,32.104,4.849,43.637C1528.707,652.236,1533.054,629.274,1526.998,607.664z M997.525,143.646
	c11.532,4.628,27.171,5.152,43.637,4.849c3.084-5.806,8.851-8.926,7.273-19.394C1026.824,123.044,1003.862,127.391,997.525,143.646z
	 M143.646,658.573c4.628-11.532,5.152-27.171,4.849-43.637c-5.806-3.084-8.926-8.851-19.394-7.273
	C123.044,629.274,127.391,652.236,143.646,658.573z M658.573,1512.452c-11.532-4.628-27.171-5.151-43.637-4.849
	c-3.084,5.806-8.851,8.926-7.273,19.394C629.274,1533.054,652.236,1528.707,658.573,1512.452z M1512.452,997.525
	c-4.628,11.532-5.151,27.171-4.849,43.637c5.806,3.084,8.926,8.851,19.394,7.273
	C1533.054,1026.824,1528.707,1003.862,1512.452,997.525z M573.724,182.434c6.339-3.358,13.285-6.109,14.546-14.546
	c-23.222-11.29-40.781,21.54-58.182,7.273c69.229-17.2-44.303-73.768-29.091,0c11.203,34.97,87.598,2.793,84.849,43.637
	c1.452-6.301-0.972-8.725-7.273-7.273c-11.707,21.845,23.06,24.332,24.243,4.849c-2.395-6.492-6.771-11.006-7.273-19.394
	c4.226-2.24,13.011,0.082,12.121-7.273C600.406,180.439,576.699,190.189,573.724,182.434z M182.434,1082.374
	c-3.358-6.339-6.109-13.285-14.546-14.546c-11.29,23.222,21.54,40.781,7.273,58.182c-17.2-69.229-73.768,44.303,0,29.091
	c34.97-11.203,2.793-87.598,43.637-84.849c-6.301-1.452-8.725,0.972-7.273,7.273c21.845,11.707,24.332-23.06,4.849-24.243
	c-6.492,2.395-11.006,6.771-19.394,7.273c-2.24-4.225,0.082-13.011-7.273-12.121
	C180.439,1055.692,190.189,1079.399,182.434,1082.374z M1082.374,1473.664c-6.339,3.358-13.285,6.109-14.546,14.546
	c23.222,11.29,40.781-21.539,58.182-7.273c-69.229,17.2,44.303,73.768,29.091,0c-11.203-34.97-87.598-2.793-84.849-43.637
	c-1.452,6.301,0.972,8.725,7.273,7.273c11.707-21.845-23.06-24.332-24.243-4.849c2.395,6.492,6.771,11.006,7.273,19.394
	c-4.225,2.24-13.011-0.082-12.121,7.273C1055.692,1475.66,1079.399,1465.909,1082.374,1473.664z M1473.664,573.724
	c3.358,6.339,6.109,13.285,14.546,14.546c11.29-23.222-21.539-40.781-7.273-58.182c17.2,69.229,73.768-44.303,0-29.091
	c-34.97,11.203-2.793,87.598-43.637,84.849c6.301,1.452,8.725-0.972,7.273-7.273c-21.845-11.707-24.332,23.06-4.849,24.243
	c6.492-2.395,11.006-6.771,19.394-7.273c2.24,4.226-0.082,13.011,7.273,12.121C1475.66,600.406,1465.909,576.699,1473.664,573.724z
	 M1048.434,189.706c-0.89,7.355,7.896,5.033,12.121,7.273c-0.502,8.388-4.878,12.902-7.273,19.394
	c1.183,19.484,35.949,16.996,24.243-4.849c-6.301-1.452-8.725,0.972-7.273,7.273c-2.749-40.844,73.646-8.667,84.849-43.637
	c15.212-73.768-98.321-17.2-29.091,0c-17.401,14.267-34.96-18.563-58.182-7.273c1.26,8.436,8.206,11.188,14.546,14.546
	C1079.399,190.189,1055.692,180.439,1048.434,189.706z M189.706,607.664c7.355,0.89,5.033-7.896,7.273-12.121
	c8.388,0.502,12.902,4.878,19.394,7.273c19.484-1.183,16.996-35.949-4.849-24.243c-1.452,6.301,0.972,8.725,7.273,7.273
	c-40.844,2.749-8.667-73.646-43.637-84.849c-73.768-15.212-17.2,98.321,0,29.091c14.267,17.401-18.563,34.96-7.273,58.182
	c8.436-1.261,11.188-8.206,14.546-14.546C190.189,576.699,180.439,600.406,189.706,607.664z M607.664,1466.392
	c0.89-7.355-7.896-5.033-12.121-7.273c0.502-8.388,4.878-12.902,7.273-19.394c-1.183-19.484-35.949-16.996-24.243,4.849
	c6.301,1.452,8.725-0.972,7.273-7.273c2.749,40.844-73.646,8.667-84.849,43.637c-15.212,73.768,98.321,17.2,29.091,0
	c17.401-14.267,34.96,18.563,58.182,7.273c-1.261-8.436-8.206-11.188-14.546-14.546
	C576.699,1465.909,600.406,1475.66,607.664,1466.392z M1466.392,1048.434c-7.355-0.89-5.033,7.896-7.273,12.121
	c-8.388-0.502-12.902-4.878-19.394-7.273c-19.484,1.183-16.996,35.949,4.849,24.243c1.452-6.301-0.972-8.725-7.273-7.273
	c40.844-2.749,8.667,73.646,43.637,84.849c73.768,15.212,17.2-98.321,0-29.091c-14.267-17.401,18.563-34.96,7.273-58.182
	c-8.436,1.26-11.188,8.206-14.546,14.546C1465.909,1079.399,1475.66,1055.692,1466.392,1048.434z M593.119,102.433
	c-0.373,6.032,3.809,7.505,4.849,12.121c-21.149,32.344-90.444-39.833-94.546,19.394c7.61-12.732,26.919-2.175,38.788-7.273
	c12.97,7.232,17.052,23.35,29.091,31.515c0.64-9.99-12.286-15.035-7.273-21.818c8.642,5.554,26.044,23.908,38.788,9.697
	c-2.659-7.845-13.43-7.578-14.546-16.97c5.84,0.992,5.27-4.427,12.121-2.424C603.948,118.458,604.59,102.521,593.119,102.433z
	 M102.433,1062.98c6.032,0.373,7.505-3.809,12.121-4.849c32.344,21.149-39.833,90.444,19.394,94.546
	c-12.732-7.61-2.175-26.919-7.273-38.788c7.232-12.97,23.35-17.052,31.515-29.091c-9.99-0.64-15.035,12.286-21.818,7.273
	c5.554-8.643,23.908-26.044,9.697-38.788c-7.845,2.659-7.578,13.43-16.97,14.546c0.992-5.84-4.427-5.27-2.424-12.121
	C118.458,1052.15,102.521,1051.508,102.433,1062.98z M1062.98,1553.665c0.373-6.031-3.809-7.505-4.849-12.121
	c21.149-32.344,90.444,39.833,94.546-19.394c-7.61,12.732-26.919,2.175-38.788,7.273c-12.97-7.232-17.052-23.35-29.091-31.515
	c-0.64,9.99,12.286,15.035,7.273,21.818c-8.643-5.554-26.044-23.908-38.788-9.697c2.659,7.845,13.43,7.578,14.546,16.97
	c-5.84-0.991-5.27,4.427-12.121,2.424C1052.15,1537.641,1051.508,1553.578,1062.98,1553.665z M1553.665,593.119
	c-6.031-0.373-7.505,3.809-12.121,4.849c-32.344-21.149,39.833-90.444-19.394-94.546c12.732,7.61,2.175,26.919,7.273,38.788
	c-7.232,12.97-23.35,17.052-31.515,29.091c9.99,0.64,15.035-12.286,21.818-7.273c-5.554,8.642-23.908,26.044-9.697,38.788
	c7.845-2.659,7.578-13.43,16.97-14.546c-0.991,5.84,4.427,5.27,2.424,12.121C1537.641,603.948,1553.578,604.59,1553.665,593.119z
	 M1055.707,126.676c6.851-2.002,6.281,3.416,12.121,2.424c-1.115,9.392-11.886,9.125-14.546,16.97
	c12.744,14.211,30.146-4.143,38.788-9.697c5.013,6.783-7.913,11.828-7.273,21.818c12.039-8.165,16.121-24.284,29.091-31.515
	c11.869,5.098,31.178-5.459,38.788,7.273c-4.102-59.227-73.397,12.95-94.546-19.394c1.04-4.616,5.222-6.09,4.849-12.121
	C1051.508,102.521,1052.15,118.458,1055.707,126.676z M126.676,600.391c-2.002-6.851,3.416-6.281,2.424-12.121
	c9.392,1.115,9.125,11.886,16.97,14.546c14.211-12.744-4.143-30.146-9.697-38.788c6.783-5.013,11.828,7.913,21.818,7.273
	c-8.165-12.039-24.284-16.121-31.515-29.091c5.098-11.869-5.459-31.178,7.273-38.788c-59.227,4.102,12.95,73.397-19.394,94.546
	c-4.616-1.04-6.09-5.222-12.121-4.849C102.521,604.59,118.458,603.948,126.676,600.391z M600.391,1529.422
	c-6.851,2.002-6.281-3.416-12.121-2.424c1.115-9.391,11.886-9.125,14.546-16.97c-12.744-14.211-30.146,4.143-38.788,9.697
	c-5.013-6.783,7.913-11.828,7.273-21.818c-12.039,8.165-16.121,24.284-29.091,31.515c-11.869-5.098-31.178,5.459-38.788-7.273
	c4.102,59.227,73.397-12.95,94.546,19.394c-1.04,4.616-5.222,6.09-4.849,12.121C604.59,1553.578,603.948,1537.641,600.391,1529.422z
	 M1529.422,1055.707c2.002,6.851-3.416,6.281-2.424,12.121c-9.391-1.115-9.125-11.886-16.97-14.546
	c-14.211,12.744,4.143,30.146,9.697,38.788c-6.783,5.013-11.828-7.913-21.818-7.273c8.165,12.039,24.284,16.121,31.515,29.091
	c-5.098,11.869,5.459,31.178-7.273,38.788c59.227-4.102-12.95-73.397,19.394-94.546c4.616,1.04,6.09,5.222,12.121,4.849
	C1553.578,1051.508,1537.641,1052.15,1529.422,1055.707z M588.27,107.282c-8.393-1.699-8.693,8.499-4.849,12.121
	C591.814,121.103,592.115,110.904,588.27,107.282z M107.282,1067.828c-1.699,8.393,8.499,8.693,12.121,4.849
	C121.103,1064.284,110.904,1063.983,107.282,1067.828z M1067.828,1548.816c8.393,1.699,8.693-8.499,4.849-12.121
	C1064.284,1534.996,1063.983,1545.194,1067.828,1548.816z M1548.816,588.27c1.699-8.393-8.499-8.693-12.121-4.849
	C1534.996,591.814,1545.194,592.115,1548.816,588.27z M1072.677,119.403c3.845-3.622,3.544-13.821-4.849-12.121
	C1063.983,110.904,1064.284,121.103,1072.677,119.403z M119.403,583.422c-3.622-3.845-13.821-3.544-12.121,4.849
	C110.904,592.115,121.103,591.814,119.403,583.422z M583.422,1536.695c-3.845,3.622-3.544,13.821,4.849,12.121
	C592.115,1545.194,591.814,1534.996,583.422,1536.695z M1536.695,1072.677c3.622,3.845,13.821,3.544,12.121-4.849
	C1545.194,1063.983,1534.996,1064.284,1536.695,1072.677z M549.482,243.04c11.091-1.03,20.153-4.092,21.818-14.546
	C557.155,226.47,551.705,233.139,549.482,243.04z M243.04,1106.616c-1.03-11.091-4.092-20.153-14.546-21.818
	C226.47,1098.943,233.139,1104.393,243.04,1106.616z M1106.616,1413.058c-11.091,1.03-20.153,4.092-21.818,14.546
	C1098.943,1429.628,1104.393,1422.959,1106.616,1413.058z M1413.058,549.482c1.03,11.091,4.092,20.153,14.546,21.818
	C1429.628,557.155,1422.959,551.705,1413.058,549.482z M1084.798,228.495c1.666,10.453,10.727,13.515,21.818,14.546
	C1104.393,233.139,1098.943,226.47,1084.798,228.495z M228.495,571.3c10.453-1.665,13.515-10.727,14.546-21.818
	C233.139,551.705,226.47,557.155,228.495,571.3z M571.3,1427.604c-1.665-10.453-10.727-13.515-21.818-14.546
	C551.705,1422.959,557.155,1429.628,571.3,1427.604z M1427.604,1084.798c-10.453,1.666-13.515,10.727-14.546,21.818
	C1422.959,1104.393,1429.628,1098.943,1427.604,1084.798z M513.118,204.252c-4.664-17.154-21.421-22.213-26.667-38.788
	c-25.634,37.704,36.155,42.376,53.334,60.606c4.415,8.946-11.045,16.693,0,16.97c8.691-1.488,4.032-16.315,2.424-21.818
	c6.984-0.288,15.869,1.324,19.394-2.424C560.675,198.717,532.844,205.534,513.118,204.252z M204.252,1142.98
	c-17.154,4.664-22.213,21.421-38.788,26.667c37.704,25.634,42.376-36.155,60.606-53.334c8.946-4.415,16.693,11.045,16.97,0
	c-1.488-8.691-16.315-4.032-21.818-2.424c-0.288-6.984,1.324-15.869-2.424-19.394
	C198.717,1095.423,205.534,1123.254,204.252,1142.98z M1142.98,1451.846c4.664,17.154,21.421,22.214,26.667,38.788
	c25.634-37.704-36.155-42.376-53.334-60.606c-4.415-8.945,11.045-16.693,0-16.97c-8.691,1.488-4.032,16.315-2.424,21.818
	c-6.984,0.289-15.869-1.324-19.394,2.424C1095.423,1457.381,1123.254,1450.564,1142.98,1451.846z M1451.846,513.118
	c17.154-4.664,22.214-21.421,38.788-26.667c-37.704-25.634-42.376,36.155-60.606,53.334c-8.945,4.415-16.693-11.045-16.97,0
	c1.488,8.691,16.315,4.032,21.818,2.424c0.289,6.984-1.324,15.869,2.424,19.394C1457.381,560.675,1450.564,532.844,1451.846,513.118
	z M1094.495,218.798c3.525,3.748,12.41,2.136,19.394,2.424c-1.607,5.503-6.267,20.33,2.424,21.818c11.045-0.276-4.415-8.024,0-16.97
	c17.178-18.23,78.968-22.902,53.334-60.606c-5.246,16.575-22.003,21.634-26.667,38.788
	C1123.254,205.534,1095.423,198.717,1094.495,218.798z M218.798,561.603c3.748-3.525,2.136-12.41,2.424-19.394
	c5.503,1.607,20.33,6.267,21.818-2.424c-0.276-11.045-8.024,4.415-16.97,0c-18.23-17.178-22.902-78.968-60.606-53.334
	c16.575,5.246,21.634,22.003,38.788,26.667C205.534,532.844,198.717,560.675,218.798,561.603z M561.603,1437.301
	c-3.525-3.748-12.41-2.136-19.394-2.424c1.607-5.503,6.267-20.33-2.424-21.818c-11.045,0.276,4.415,8.024,0,16.97
	c-17.178,18.23-78.968,22.902-53.334,60.606c5.246-16.575,22.003-21.634,26.667-38.788
	C532.844,1450.564,560.675,1457.381,561.603,1437.301z M1437.301,1094.495c-3.748,3.525-2.136,12.41-2.424,19.394
	c-5.503-1.607-20.33-6.267-21.818,2.424c0.276,11.045,8.024-4.415,16.97,0c18.23,17.178,22.902,78.968,60.606,53.334
	c-16.575-5.246-21.634-22.003-38.788-26.667C1450.564,1123.254,1457.381,1095.423,1437.301,1094.495z M367.663,126.676
	c16.89,6.412,31.237-6.41,53.334-2.424c16.095-38.609,70.429-36.577,113.94-24.243c1.888-0.536,2.819-2.029,2.424-4.849
	C477.409,69.672,403.998,93.779,367.663,126.676z M126.676,1288.435c6.412-16.89-6.41-31.237-2.424-53.334
	c-38.609-16.095-36.577-70.429-24.243-113.94c-0.536-1.889-2.029-2.819-4.849-2.424
	C69.672,1178.689,93.779,1252.101,126.676,1288.435z M1288.435,1529.422c-16.89-6.412-31.237,6.41-53.334,2.424
	c-16.095,38.609-70.429,36.577-113.94,24.243c-1.889,0.536-2.819,2.029-2.424,4.849
	C1178.689,1586.426,1252.101,1562.319,1288.435,1529.422z M1529.422,367.663c-6.412,16.89,6.41,31.237,2.424,53.334
	c38.609,16.095,36.577,70.429,24.243,113.94c0.536,1.888,2.029,2.819,4.849,2.424
	C1586.426,477.409,1562.319,403.998,1529.422,367.663z M1118.737,95.161c-0.395,2.819,0.536,4.313,2.424,4.849
	c43.51-12.335,97.845-14.366,113.94,24.243c22.097-3.985,36.444,8.836,53.334,2.424
	C1252.101,93.779,1178.689,69.672,1118.737,95.161z M95.161,537.361c2.819,0.395,4.313-0.536,4.849-2.424
	c-12.335-43.511-14.366-97.845,24.243-113.94c-3.985-22.097,8.836-36.444,2.424-53.334
	C93.779,403.998,69.672,477.409,95.161,537.361z M537.361,1560.938c0.395-2.819-0.536-4.313-2.424-4.849
	c-43.511,12.335-97.845,14.366-113.94-24.243c-22.097,3.985-36.444-8.836-53.334-2.424
	C403.998,1562.319,477.409,1586.426,537.361,1560.938z M1560.938,1118.737c-2.819-0.395-4.313,0.536-4.849,2.424
	c12.335,43.51,14.366,97.845-24.243,113.94c3.985,22.097-8.836,36.444-2.424,53.334
	C1562.319,1252.101,1586.426,1178.689,1560.938,1118.737z M457.36,160.615c-9.462,38.349,29.86,72.825,63.031,60.606
	C483.85,216.55,467.152,192.039,457.36,160.615z M160.615,1198.738c38.349,9.462,72.825-29.86,60.606-63.031
	C216.55,1172.248,192.039,1188.946,160.615,1198.738z M1198.738,1495.483c9.462-38.349-29.86-72.825-63.031-60.606
	C1172.248,1439.548,1188.946,1464.059,1198.738,1495.483z M1495.483,457.36c-38.349-9.462-72.825,29.86-60.606,63.031
	C1439.548,483.85,1464.059,467.152,1495.483,457.36z M1135.707,221.222c33.171,12.218,72.492-22.257,63.031-60.606
	C1188.946,192.039,1172.248,216.55,1135.707,221.222z M221.222,520.391c12.218-33.171-22.257-72.493-60.606-63.031
	C192.039,467.152,216.55,483.85,221.222,520.391z M520.391,1434.876c-33.171-12.218-72.493,22.257-63.031,60.606
	C467.152,1464.059,483.85,1439.548,520.391,1434.876z M1434.876,1135.707c-12.218,33.171,22.257,72.492,60.606,63.031
	C1464.059,1188.946,1439.548,1172.248,1434.876,1135.707z M515.542,233.343c-46.606-1.879-70.897-26.073-72.728-72.728
	c-5.656,0-11.314,0-16.97,0c8.689,29.3,29.598,59.278,46.061,72.728c-35.724-8.72-37.142-51.748-67.879-65.455
	c-1.699,10.587,4.124,13.656,2.424,24.243c-8.882-0.802-13.469,2.691-19.394,4.849c1.777,11.152,14.88,10.979,21.818,16.97
	c-2.032,5.241-6.276,8.269-4.849,16.97c4.221,8.424,29.161,12.698,26.667-4.849c-7.139-9.893-11.85,8.604-14.546,2.424
	c-6.027-7.239,7.241-10.708,14.546-12.121c24.378,14.417,55.668,34.824,89.697,31.515
	C514.946,246.87,520.325,235.026,515.542,233.343z M233.343,1140.556c-1.879,46.606-26.073,70.897-72.728,72.728
	c0,5.656,0,11.314,0,16.97c29.3-8.689,59.278-29.598,72.728-46.061c-8.72,35.724-51.748,37.142-65.455,67.879
	c10.587,1.699,13.656-4.124,24.243-2.424c-0.802,8.882,2.691,13.469,4.849,19.394c11.152-1.777,10.979-14.88,16.97-21.818
	c5.241,2.031,8.269,6.276,16.97,4.849c8.424-4.221,12.698-29.161-4.849-26.667c-9.893,7.139,8.604,11.85,2.424,14.546
	c-7.239,6.027-10.708-7.241-12.121-14.546c14.417-24.378,34.824-55.668,31.515-89.697
	C246.87,1141.152,235.026,1135.773,233.343,1140.556z M1140.556,1422.755c46.606,1.879,70.897,26.073,72.728,72.728
	c5.656,0,11.314,0,16.97,0c-8.689-29.3-29.598-59.278-46.061-72.728c35.724,8.72,37.142,51.748,67.879,65.455
	c1.699-10.587-4.124-13.656-2.424-24.243c8.882,0.802,13.469-2.691,19.394-4.849c-1.777-11.151-14.88-10.979-21.818-16.97
	c2.031-5.241,6.276-8.269,4.849-16.97c-4.221-8.424-29.161-12.698-26.667,4.849c7.139,9.893,11.85-8.604,14.546-2.424
	c6.027,7.239-7.241,10.708-14.546,12.121c-24.378-14.417-55.668-34.824-89.697-31.515
	C1141.152,1409.228,1135.773,1421.073,1140.556,1422.755z M1422.755,515.542c1.879-46.606,26.073-70.897,72.728-72.728
	c0-5.656,0-11.314,0-16.97c-29.3,8.689-59.278,29.598-72.728,46.061c8.72-35.724,51.748-37.142,65.455-67.879
	c-10.587-1.699-13.656,4.124-24.243,2.424c0.802-8.882-2.691-13.469-4.849-19.394c-11.151,1.777-10.979,14.88-16.97,21.818
	c-5.241-2.032-8.269-6.276-16.97-4.849c-8.424,4.221-12.698,29.161,4.849,26.667c9.893-7.139-8.604-11.85-2.424-14.546
	c7.239-6.027,10.708,7.241,12.121,14.546c-14.417,24.378-34.824,55.668-31.515,89.697
	C1409.228,514.946,1421.073,520.325,1422.755,515.542z M1135.707,247.889c34.029,3.309,65.319-17.098,89.697-31.515
	c7.304,1.413,20.572,4.882,14.546,12.121c-2.696,6.179-7.406-12.318-14.546-2.424c-2.495,17.547,22.446,13.273,26.667,4.849
	c1.428-8.701-2.817-11.729-4.849-16.97c6.938-5.99,20.041-5.818,21.818-16.97c-5.925-2.158-10.512-5.651-19.394-4.849
	c-1.699-10.587,4.124-13.656,2.424-24.243c-30.737,13.707-32.155,56.735-67.879,65.455c16.463-13.45,37.372-43.428,46.061-72.728
	c-5.656,0-11.314,0-16.97,0c-1.83,46.655-26.121,70.849-72.728,72.728C1135.773,235.026,1141.152,246.87,1135.707,247.889z
	 M247.889,520.391c3.309-34.029-17.098-65.319-31.515-89.697c1.413-7.304,4.882-20.572,12.121-14.546
	c6.179,2.696-12.318,7.406-2.424,14.546c17.547,2.495,13.273-22.446,4.849-26.667c-8.701-1.428-11.729,2.817-16.97,4.849
	c-5.99-6.938-5.818-20.041-16.97-21.818c-2.158,5.925-5.651,10.512-4.849,19.394c-10.587,1.699-13.656-4.124-24.243-2.424
	c13.707,30.737,56.735,32.155,65.455,67.879c-13.45-16.463-43.428-37.372-72.728-46.061c0,5.656,0,11.314,0,16.97
	c46.655,1.83,70.849,26.121,72.728,72.728C235.026,520.325,246.87,514.946,247.889,520.391z M520.391,1408.209
	c-34.029-3.309-65.319,17.098-89.697,31.515c-7.304-1.413-20.572-4.882-14.546-12.121c2.696-6.179,7.406,12.318,14.546,2.424
	c2.495-17.547-22.446-13.273-26.667-4.849c-1.428,8.701,2.817,11.729,4.849,16.97c-6.938,5.99-20.041,5.818-21.818,16.97
	c5.925,2.158,10.512,5.651,19.394,4.849c1.699,10.587-4.124,13.656-2.424,24.243c30.737-13.707,32.155-56.735,67.879-65.455
	c-16.463,13.45-37.372,43.428-46.061,72.728c5.656,0,11.314,0,16.97,0c1.83-46.655,26.121-70.849,72.728-72.728
	C520.325,1421.073,514.946,1409.228,520.391,1408.209z M1408.209,1135.707c-3.309,34.029,17.098,65.319,31.515,89.697
	c-1.413,7.304-4.882,20.572-12.121,14.546c-6.179-2.696,12.318-7.406,2.424-14.546c-17.547-2.495-13.273,22.446-4.849,26.667
	c8.701,1.428,11.729-2.817,16.97-4.849c5.99,6.938,5.818,20.041,16.97,21.818c2.158-5.925,5.651-10.512,4.849-19.394
	c10.587-1.699,13.656,4.124,24.243,2.424c-13.707-30.737-56.735-32.155-65.455-67.879c13.45,16.463,43.428,37.372,72.728,46.061
	c0-5.656,0-11.314,0-16.97c-46.655-1.83-70.849-26.121-72.728-72.728C1421.073,1135.773,1409.228,1141.152,1408.209,1135.707z
	 M440.39,124.252c25.205,4.126,34.485-17.636,58.182-7.273c1.743-6.337,8.73-7.43,9.697-14.546
	C483.523,92.39,443.864,98.121,440.39,124.252z M124.252,1215.708c4.126-25.205-17.636-34.485-7.273-58.182
	c-6.337-1.743-7.43-8.73-14.546-9.697C92.39,1172.575,98.121,1212.234,124.252,1215.708z M1215.708,1531.846
	c-25.205-4.126-34.485,17.636-58.182,7.273c-1.743,6.337-8.73,7.43-9.697,14.546
	C1172.575,1563.708,1212.234,1557.978,1215.708,1531.846z M1531.846,440.39c-4.126,25.205,17.636,34.485,7.273,58.182
	c6.337,1.743,7.43,8.73,14.546,9.697C1563.708,483.523,1557.978,443.864,1531.846,440.39z M1147.828,102.433
	c0.967,7.115,7.954,8.209,9.697,14.546c23.697-10.364,32.977,11.399,58.182,7.273C1212.234,98.121,1172.575,92.39,1147.828,102.433z
	 M102.433,508.27c7.115-0.967,8.209-7.954,14.546-9.697c-10.364-23.697,11.399-32.977,7.273-58.182
	C98.121,443.864,92.39,483.523,102.433,508.27z M508.27,1553.665c-0.967-7.115-7.954-8.208-9.697-14.546
	c-23.697,10.364-32.977-11.399-58.182-7.273C443.864,1557.978,483.523,1563.708,508.27,1553.665z M1553.665,1147.828
	c-7.115,0.967-8.208,7.954-14.546,9.697c10.364,23.697-11.399,32.977-7.273,58.182
	C1557.978,1212.234,1563.708,1172.575,1553.665,1147.828z M484.027,136.373c-7.852,3.459-10.024,12.601-9.697,24.243
	C489.453,163.083,503.324,139.84,484.027,136.373z M136.373,1172.071c3.459,7.852,12.601,10.024,24.243,9.697
	C163.083,1166.646,139.84,1152.774,136.373,1172.071z M1172.071,1519.725c7.852-3.459,10.024-12.601,9.697-24.243
	C1166.646,1493.015,1152.774,1516.259,1172.071,1519.725z M1519.725,484.027c-3.459-7.852-12.601-10.024-24.243-9.697
	C1493.015,489.453,1516.259,503.324,1519.725,484.027z M1181.768,160.615c0.327-11.641-1.845-20.783-9.697-24.243
	C1152.774,139.84,1166.646,163.083,1181.768,160.615z M160.615,474.33c-11.641-0.327-20.783,1.845-24.243,9.697
	C139.84,503.324,163.083,489.453,160.615,474.33z M474.33,1495.483c-0.327,11.641,1.845,20.783,9.697,24.243
	C503.324,1516.259,489.453,1493.015,474.33,1495.483z M1495.483,1181.768c11.641,0.327,20.783-1.845,24.243-9.697
	C1516.259,1152.774,1493.015,1166.646,1495.483,1181.768z M469.482,133.949c-20.209-6.16-45.593-1.086-70.303,0
	c-57.13,2.512-117.734,0.056-176.971,2.424c-13.981,0.558-51.639-4.875-46.061,16.97c76.291,5.682,204.173-3.648,288.486,0
	C463.986,144.613,469.111,141.66,469.482,133.949z M133.949,1186.617c-6.16,20.209-1.086,45.593,0,70.303
	c2.512,57.13,0.056,117.734,2.424,176.971c0.558,13.981-4.875,51.639,16.97,46.061c5.682-76.291-3.648-204.173,0-288.486
	C144.613,1192.112,141.66,1186.988,133.949,1186.617z M1186.617,1522.149c20.209,6.16,45.593,1.086,70.303,0
	c57.13-2.511,117.734-0.056,176.971-2.424c13.981-0.558,51.639,4.875,46.061-16.97c-76.291-5.682-204.173,3.649-288.486,0
	C1192.112,1511.485,1186.988,1514.438,1186.617,1522.149z M1522.149,469.482c6.16-20.209,1.086-45.593,0-70.303
	c-2.511-57.13-0.056-117.734-2.424-176.971c-0.558-13.981,4.875-51.639-16.97-46.061c-5.682,76.291,3.649,204.173,0,288.486
	C1511.485,463.986,1514.438,469.111,1522.149,469.482z M1191.465,153.343c84.313-3.648,212.195,5.682,288.486,0
	c5.578-21.845-32.08-16.412-46.061-16.97c-59.237-2.368-119.841,0.087-176.971-2.424c-24.71-1.086-50.095-6.16-70.303,0
	C1186.988,141.66,1192.112,144.613,1191.465,153.343z M153.343,464.633c-3.648-84.313,5.682-212.195,0-288.486
	c-21.845-5.578-16.412,32.08-16.97,46.061c-2.368,59.237,0.087,119.841-2.424,176.971c-1.086,24.71-6.16,50.095,0,70.303
	C141.66,469.111,144.613,463.986,153.343,464.633z M464.633,1502.755c-84.313,3.649-212.195-5.682-288.486,0
	c-5.578,21.845,32.08,16.412,46.061,16.97c59.237,2.369,119.841-0.087,176.971,2.424c24.71,1.086,50.095,6.16,70.303,0
	C469.111,1514.438,463.986,1511.485,464.633,1502.755z M1502.755,1191.465c3.649,84.313-5.682,212.195,0,288.486
	c21.845,5.578,16.412-32.08,16.97-46.061c2.369-59.237-0.087-119.841,2.424-176.971c1.086-24.71,6.16-50.095,0-70.303
	C1514.438,1186.988,1511.485,1192.112,1502.755,1191.465z M1428.87,227.228c9.555,20.413,18.33,40.381,18.128,62.858
	c-7.491-0.589-4.095-12.065-14.546-9.697c-4.194,3.886-8.824,7.338-7.273,16.97c12.31,2.235,12.553,16.538,14.546,29.091
	c9.755,1.675,5.952-10.209,14.546-9.697c5.006,9.539,10.289,18.803,19.394,24.243c9.75-7.418-3.816-29.92,9.697-29.091
	c-3.949-13.256-15.464-28.165-24.243-43.637c-6.15-10.841-27.922-33.467-7.273-41.212c2.829,36.769,23.995,55.195,41.212,77.576
	c0-8.89,0-17.777,0-26.667c-13.835-23.139-30.769-45.227-46.029-68.896c-23.67-15.26-45.757-32.194-68.896-46.029
	c-8.89,0-17.777,0-26.667,0c22.381,17.217,40.807,38.383,77.576,41.212c-7.745,20.65-30.371-1.122-41.212-7.273
	c-15.472-8.778-30.381-20.293-43.637-24.243c0.829,13.513-21.673-0.053-29.091,9.697c5.44,9.105,14.703,14.388,24.243,19.394
	c0.511,8.594-11.372,4.79-9.697,14.546c12.553,1.993,26.856,2.235,29.091,14.546c9.631,1.552,13.084-3.079,16.97-7.273
	c2.369-10.451-9.108-7.055-9.697-14.546C1388.488,208.898,1408.457,217.673,1428.87,227.228z M1428.87,1428.87
	c-20.413,9.555-40.381,18.33-62.858,18.128c0.589-7.491,12.066-4.095,9.697-14.546c-3.886-4.194-7.338-8.824-16.97-7.273
	c-2.235,12.31-16.538,12.553-29.091,14.546c-1.675,9.755,10.208,5.952,9.697,14.546c-9.539,5.006-18.803,10.289-24.243,19.394
	c7.418,9.75,29.92-3.816,29.091,9.697c13.256-3.949,28.165-15.464,43.637-24.243c10.841-6.15,33.467-27.922,41.212-7.273
	c-36.769,2.829-55.195,23.995-77.576,41.212c8.89,0,17.777,0,26.667,0c23.139-13.835,45.227-30.769,68.896-46.029
	c15.26-23.67,32.194-45.757,46.029-68.896c0-8.89,0-17.777,0-26.667c-17.217,22.381-38.383,40.807-41.212,77.576
	c-20.65-7.745,1.122-30.371,7.273-41.212c8.778-15.472,20.293-30.381,24.243-43.637c-13.513,0.829,0.053-21.673-9.697-29.091
	c-9.105,5.44-14.388,14.703-19.394,24.243c-8.594,0.511-4.79-11.372-14.546-9.697c-1.993,12.553-2.235,26.856-14.546,29.091
	c-1.552,9.631,3.079,13.084,7.273,16.97c10.451,2.369,7.055-9.108,14.546-9.697C1447.2,1388.488,1438.425,1408.457,1428.87,1428.87z
	 M227.228,1428.87c-9.555-20.413-18.33-40.381-18.128-62.858c7.491,0.589,4.095,12.066,14.546,9.697
	c4.194-3.886,8.824-7.338,7.273-16.97c-12.31-2.235-12.553-16.538-14.546-29.091c-9.755-1.675-5.952,10.208-14.546,9.697
	c-5.006-9.539-10.289-18.803-19.394-24.243c-9.75,7.418,3.816,29.92-9.697,29.091c3.949,13.256,15.464,28.165,24.243,43.637
	c6.15,10.841,27.923,33.467,7.273,41.212c-2.829-36.769-23.995-55.195-41.212-77.576c0,8.89,0,17.777,0,26.667
	c13.835,23.139,30.769,45.227,46.029,68.896c23.67,15.26,45.757,32.194,68.896,46.029c8.89,0,17.777,0,26.667,0
	c-22.381-17.217-40.808-38.383-77.576-41.212c7.746-20.65,30.371,1.122,41.212,7.273c15.472,8.778,30.381,20.293,43.637,24.243
	c-0.829-13.513,21.673,0.053,29.091-9.697c-5.44-9.105-14.703-14.388-24.243-19.394c-0.512-8.594,11.372-4.79,9.697-14.546
	c-12.553-1.993-26.856-2.235-29.091-14.546c-9.632-1.552-13.084,3.079-16.97,7.273c-2.368,10.451,9.108,7.055,9.697,14.546
	C267.61,1447.2,247.642,1438.425,227.228,1428.87z M227.228,227.228c20.413-9.555,40.381-18.33,62.858-18.128
	c-0.589,7.491-12.065,4.095-9.697,14.546c3.886,4.194,7.338,8.824,16.97,7.273c2.235-12.31,16.538-12.553,29.091-14.546
	c1.675-9.755-10.209-5.952-9.697-14.546c9.539-5.006,18.803-10.289,24.243-19.394c-7.418-9.75-29.92,3.816-29.091-9.697
	c-13.256,3.949-28.165,15.464-43.637,24.243c-10.841,6.15-33.467,27.923-41.212,7.273c36.769-2.829,55.195-23.995,77.576-41.212
	c-8.89,0-17.777,0-26.667,0c-23.139,13.835-45.227,30.769-68.896,46.029c-15.26,23.67-32.194,45.757-46.029,68.896
	c0,8.89,0,17.777,0,26.667c17.217-22.381,38.383-40.808,41.212-77.576c20.65,7.746-1.122,30.371-7.273,41.212
	c-8.778,15.472-20.293,30.381-24.243,43.637c13.513-0.829-0.053,21.673,9.697,29.091c9.105-5.44,14.388-14.703,19.394-24.243
	c8.594-0.512,4.79,11.372,14.546,9.697c1.993-12.553,2.235-26.856,14.546-29.091c1.552-9.632-3.079-13.084-7.273-16.97
	c-10.451-2.368-7.055,9.108-14.546,9.697C208.898,267.61,217.673,247.642,227.228,227.228z M1457.139,198.959
	c11.165,7.288,23.884,12.186,33.495,11.127c-3.411-11.135-22.41-6.681-26.667-16.97c11.43-0.119,14.802,7.823,26.667,7.273
	c-4.419-8.403-11.125-12.81-18.302-16.624c-3.813-7.176-8.22-13.883-16.624-18.302c-0.55,11.864,7.391,15.236,7.273,26.667
	c-10.288-4.257-5.835-23.256-16.97-26.667C1444.953,175.075,1449.851,187.795,1457.139,198.959z M1457.139,1457.139
	c-7.288,11.165-12.186,23.884-11.127,33.495c11.135-3.411,6.681-22.41,16.97-26.667c0.119,11.43-7.823,14.802-7.273,26.667
	c8.403-4.419,12.81-11.125,16.624-18.302c7.176-3.813,13.883-8.22,18.302-16.624c-11.864-0.55-15.236,7.391-26.667,7.273
	c4.257-10.288,23.256-5.835,26.667-16.97C1481.023,1444.953,1468.304,1449.851,1457.139,1457.139z M198.959,1457.139
	c-11.165-7.288-23.884-12.186-33.495-11.127c3.411,11.135,22.41,6.681,26.667,16.97c-11.43,0.119-14.803-7.823-26.667-7.273
	c4.419,8.403,11.125,12.81,18.302,16.624c3.813,7.176,8.22,13.883,16.624,18.302c0.55-11.864-7.392-15.236-7.273-26.667
	c10.288,4.257,5.835,23.256,16.97,26.667C211.146,1481.023,206.247,1468.304,198.959,1457.139z M198.959,198.959
	c7.288-11.165,12.186-23.884,11.127-33.495c-11.135,3.411-6.681,22.41-16.97,26.667c-0.119-11.43,7.823-14.803,7.273-26.667
	c-8.403,4.419-12.81,11.125-16.624,18.302c-7.176,3.813-13.883,8.22-18.302,16.624c11.864,0.55,15.236-7.392,26.667-7.273
	c-4.257,10.288-23.256,5.835-26.667,16.97C175.075,211.146,187.795,206.247,198.959,198.959z M236.753,90.312
	c4.759-8.17,7.013-18.846,7.273-31.515c-14.172,0.373-15.942,13.149-26.667,16.97c0.119-7.392-2.201-12.342-7.273-14.546
	c-7.115,25.772-1.847,40.374,0,67.879c14.601-6.509,32.686-45.537,48.485-14.546c-8.868-0.528-9.299-3.331-16.97,0
	c0,4.041,0,8.08,0,12.121C282.525,140.693,266.232,77.527,236.753,90.312z M90.312,1419.345c-8.17-4.759-18.846-7.013-31.515-7.273
	c0.373,14.172,13.149,15.942,16.97,26.667c-7.392-0.119-12.342,2.201-14.546,7.273c25.772,7.115,40.374,1.847,67.879,0
	c-6.509-14.601-45.537-32.686-14.546-48.485c-0.528,8.868-3.331,9.299,0,16.97c4.041,0,8.08,0,12.121,0
	C140.693,1373.573,77.527,1389.866,90.312,1419.345z M1419.345,1565.786c-4.759,8.17-7.013,18.846-7.273,31.515
	c14.172-0.373,15.942-13.149,26.667-16.97c-0.119,7.392,2.201,12.342,7.273,14.546c7.115-25.772,1.847-40.374,0-67.879
	c-14.601,6.509-32.686,45.537-48.485,14.546c8.868,0.529,9.299,3.331,16.97,0c0-4.041,0-8.08,0-12.121
	C1373.573,1515.405,1389.866,1578.572,1419.345,1565.786z M1565.786,236.753c8.17,4.759,18.846,7.013,31.515,7.273
	c-0.373-14.172-13.149-15.942-16.97-26.667c7.392,0.119,12.342-2.201,14.546-7.273c-25.772-7.115-40.374-1.847-67.879,0
	c6.509,14.601,45.537,32.686,14.546,48.485c0.529-8.868,3.331-9.299,0-16.97c-4.041,0-8.08,0-12.121,0
	C1515.405,282.525,1578.572,266.232,1565.786,236.753z M1414.497,126.676c0-4.041,0-8.08,0-12.121c-7.67-3.331-8.102-0.528-16.97,0
	c15.799-30.992,33.884,8.036,48.485,14.546c1.847-27.506,7.115-42.107,0-67.879c-5.072,2.204-7.392,7.154-7.273,14.546
	c-10.725-3.821-12.495-16.596-26.667-16.97c0.259,12.669,2.514,23.346,7.273,31.515
	C1389.866,77.527,1373.573,140.693,1414.497,126.676z M126.676,241.602c-4.041,0-8.08,0-12.121,0c-3.331,7.67-0.528,8.102,0,16.97
	c-30.992-15.799,8.036-33.884,14.546-48.485c-27.506-1.847-42.107-7.115-67.879,0c2.204,5.072,7.154,7.392,14.546,7.273
	c-3.821,10.725-16.596,12.495-16.97,26.667c12.669-0.259,23.346-2.514,31.515-7.273C77.527,266.232,140.693,282.525,126.676,241.602
	z M241.602,1529.422c0,4.041,0,8.08,0,12.121c7.67,3.331,8.102,0.529,16.97,0c-15.799,30.992-33.884-8.036-48.485-14.546
	c-1.847,27.506-7.115,42.107,0,67.879c5.072-2.204,7.392-7.154,7.273-14.546c10.725,3.821,12.495,16.597,26.667,16.97
	c-0.259-12.669-2.514-23.346-7.273-31.515C266.232,1578.572,282.525,1515.405,241.602,1529.422z M1529.422,1414.497
	c4.041,0,8.08,0,12.121,0c3.331-7.67,0.529-8.102,0-16.97c30.992,15.799-8.036,33.884-14.546,48.485
	c27.506,1.847,42.107,7.115,67.879,0c-2.204-5.072-7.154-7.392-14.546-7.273c3.821-10.725,16.597-12.495,16.97-26.667
	c-12.669,0.259-23.346,2.514-31.515,7.273C1578.572,1389.866,1515.405,1373.573,1529.422,1414.497z M222.207,170.312
	c11.486,0.606,22.26-5.03,14.546,7.273c12.146,0.024,16.512-7.731,21.818-14.546C246.748,165.762,222.869,156.429,222.207,170.312z
	 M170.312,1433.891c0.606-11.486-5.03-22.26,7.273-14.546c0.024-12.146-7.731-16.512-14.546-21.818
	C165.762,1409.35,156.429,1433.229,170.312,1433.891z M1433.891,1485.786c-11.486-0.606-22.26,5.03-14.546-7.273
	c-12.146-0.024-16.512,7.731-21.818,14.546C1409.35,1490.336,1433.229,1499.669,1433.891,1485.786z M1485.786,222.207
	c-0.606,11.486,5.03,22.26-7.273,14.546c-0.024,12.146,7.731,16.512,14.546,21.818
	C1490.336,246.748,1499.669,222.869,1485.786,222.207z M1397.527,163.04c5.307,6.815,9.673,14.57,21.818,14.546
	c-7.714-12.303,3.059-6.667,14.546-7.273C1433.229,156.429,1409.35,165.762,1397.527,163.04z M163.04,258.571
	c6.815-5.307,14.57-9.673,14.546-21.818c-12.303,7.714-6.667-3.059-7.273-14.546C156.429,222.869,165.762,246.748,163.04,258.571z
	 M258.571,1493.058c-5.307-6.815-9.673-14.57-21.818-14.546c7.714,12.303-3.059,6.667-14.546,7.273
	C222.869,1499.669,246.748,1490.336,258.571,1493.058z M1493.058,1397.527c-6.815,5.307-14.57,9.673-14.546,21.818
	c12.303-7.714,6.667,3.059,7.273,14.546C1499.669,1433.229,1490.336,1409.35,1493.058,1397.527z M212.51,196.979
	c4.892-6.422,15.256-7.37,14.546-19.394C216.166,176.485,210.013,192.742,212.51,196.979z M196.979,1443.588
	c-6.422-4.892-7.37-15.256-19.394-14.546C176.485,1439.932,192.742,1446.085,196.979,1443.588z M1443.588,1459.119
	c-4.892,6.422-15.256,7.37-14.546,19.394C1439.932,1479.614,1446.085,1463.356,1443.588,1459.119z M1459.119,212.51
	c6.422,4.892,7.37,15.256,19.394,14.546C1479.614,216.166,1463.356,210.013,1459.119,212.51z M1429.042,177.585
	c-0.71,12.024,9.653,12.972,14.546,19.394C1446.085,192.742,1439.932,176.485,1429.042,177.585z M177.585,227.056
	c12.024,0.71,12.972-9.653,19.394-14.546C192.742,210.013,176.485,216.166,177.585,227.056z M227.056,1478.513
	c0.71-12.024-9.653-12.972-14.546-19.394C210.013,1463.356,216.166,1479.614,227.056,1478.513z M1478.513,1429.042
	c-12.024-0.71-12.972,9.653-19.394,14.546C1463.356,1446.085,1479.614,1439.932,1478.513,1429.042z M78.328,78.328
	c23.533-20.998,58.645-27.8,85.697-9.835c22.078,14.662,20.703,39.518,36.364,60.606c10.946-20.41-16.924-30.136-4.849-46.061
	c-20.696-32.63-53.794-48.669-94.546-36.364c-12.701,3.836-22.648,13.109-32.174,22.145c-9.036,9.526-18.31,19.473-22.145,32.174
	c-12.306,40.752,3.733,73.85,36.364,94.546c15.925-12.075,25.651,15.794,46.061,4.849c-21.089-15.661-45.944-14.286-60.606-36.364
	C50.529,136.973,57.33,101.862,78.328,78.328z M1577.77,78.328c20.998,23.533,27.8,58.645,9.835,85.697
	c-14.662,22.078-39.518,20.703-60.606,36.364c20.41,10.946,30.136-16.924,46.061-4.849c32.63-20.696,48.669-53.794,36.364-94.546
	c-3.836-12.701-13.109-22.648-22.145-32.174c-9.526-9.036-19.473-18.31-32.174-22.145c-40.752-12.306-73.85,3.733-94.546,36.364
	c12.075,15.925-15.794,25.651-4.849,46.061c15.661-21.089,14.286-45.944,36.364-60.606
	C1519.125,50.529,1554.236,57.33,1577.77,78.328z M1577.77,1577.77c-23.533,20.998-58.645,27.8-85.697,9.835
	c-22.078-14.662-20.703-39.518-36.364-60.606c-10.946,20.41,16.924,30.136,4.849,46.061c20.696,32.63,53.794,48.669,94.546,36.364
	c12.701-3.836,22.648-13.109,32.174-22.145c9.036-9.526,18.31-19.473,22.145-32.174c12.306-40.752-3.733-73.85-36.364-94.546
	c-15.925,12.075-25.651-15.794-46.061-4.849c21.089,15.661,45.945,14.286,60.606,36.364
	C1605.569,1519.125,1598.768,1554.236,1577.77,1577.77z M78.328,1577.77c-20.998-23.533-27.8-58.645-9.835-85.697
	c14.662-22.078,39.518-20.703,60.606-36.364c-20.41-10.946-30.136,16.924-46.061,4.849c-32.63,20.696-48.669,53.794-36.364,94.546
	c3.836,12.701,13.109,22.648,22.145,32.174c9.526,9.036,19.473,18.31,32.174,22.145c40.752,12.306,73.85-3.733,94.546-36.364
	c-12.075-15.925,15.794-25.651,4.849-46.061c-15.661,21.089-14.286,45.945-36.364,60.606
	C136.973,1605.569,101.862,1598.768,78.328,1577.77z M87.86,87.86c3.633-3.4,7.65-6.144,13.135-7.245
	c37.77-7.581,65.033,26.01,80,48.485c14.93-56.399-66.231-72.85-98.741-46.846c-26.004,32.51-9.553,113.671,46.846,98.741
	c-22.475-14.967-56.066-42.231-48.485-80C81.716,95.509,84.459,91.493,87.86,87.86z M1568.239,87.86
	c3.4,3.633,6.144,7.65,7.245,13.135c7.581,37.77-26.01,65.033-48.485,80c56.399,14.93,72.85-66.231,46.846-98.741
	c-32.51-26.004-113.671-9.553-98.741,46.846c14.967-22.475,42.23-56.066,80-48.485C1560.589,81.716,1564.605,84.459,1568.239,87.86z
	 M1568.239,1568.239c-3.634,3.4-7.65,6.144-13.135,7.245c-37.77,7.581-65.033-26.01-80-48.485
	c-14.93,56.399,66.231,72.85,98.741,46.846c26.004-32.51,9.553-113.671-46.846-98.741c22.475,14.967,56.066,42.23,48.485,80
	C1574.382,1560.589,1571.639,1564.605,1568.239,1568.239z M87.86,1568.239c-3.4-3.634-6.144-7.65-7.245-13.135
	c-7.581-37.77,26.01-65.033,48.485-80c-56.399-14.93-72.85,66.231-46.846,98.741c32.51,26.004,113.671,9.553,98.741-46.846
	c-14.967,22.475-42.231,56.066-80,48.485C95.509,1574.382,91.493,1571.639,87.86,1568.239z M178.323,178.323
	c0.947-1.805,1.839-3.667,2.672-5.587c0-2.424,0-4.849,0-7.273c-3.711,1.369-6.959,3.303-9.93,5.601
	c-2.298,2.972-4.232,6.22-5.601,9.93c2.424,0,4.849,0,7.273,0C174.657,180.162,176.518,179.271,178.323,178.323z M1477.775,178.323
	c1.805,0.947,3.667,1.839,5.587,2.672c2.424,0,4.849,0,7.273,0c-1.369-3.711-3.303-6.959-5.601-9.93
	c-2.972-2.298-6.22-4.232-9.93-5.601c0,2.424,0,4.849,0,7.273C1475.936,174.657,1476.828,176.518,1477.775,178.323z
	 M1477.775,1477.775c-0.947,1.805-1.839,3.667-2.672,5.587c0,2.424,0,4.849,0,7.273c3.71-1.369,6.959-3.303,9.93-5.601
	c2.298-2.972,4.232-6.22,5.601-9.93c-2.424,0-4.849,0-7.273,0C1481.442,1475.936,1479.58,1476.828,1477.775,1477.775z
	 M178.323,1477.775c-1.805-0.947-3.667-1.839-5.587-2.672c-2.424,0-4.849,0-7.273,0c1.369,3.71,3.303,6.959,5.601,9.93
	c2.972,2.298,6.22,4.232,9.93,5.601c0-2.424,0-4.849,0-7.273C180.162,1481.442,179.271,1479.58,178.323,1477.775z M164.085,164.085
	c4.201-10.587,4.121-23.226-2.484-37.409c-11.993,8.126-1.707,15.918-2.424,31.515c-0.126,0.201-0.253,0.402-0.382,0.603
	c-0.201,0.129-0.402,0.256-0.603,0.382c-15.598,0.718-23.389-9.569-31.515,2.424C140.859,168.206,153.499,168.286,164.085,164.085z
	 M1492.013,164.085c10.587,4.201,23.226,4.121,37.409-2.484c-8.126-11.993-15.918-1.707-31.515-2.424
	c-0.201-0.126-0.402-0.253-0.603-0.382c-0.129-0.201-0.256-0.402-0.382-0.603c-0.718-15.598,9.568-23.389-2.424-31.515
	C1487.892,140.859,1487.812,153.499,1492.013,164.085z M1492.013,1492.013c-4.2,10.587-4.121,23.226,2.484,37.409
	c11.993-8.126,1.707-15.918,2.424-31.515c0.126-0.201,0.253-0.402,0.382-0.603c0.201-0.129,0.402-0.256,0.603-0.382
	c15.598-0.718,23.389,9.568,31.515-2.424C1515.239,1487.892,1502.599,1487.812,1492.013,1492.013z M164.085,1492.013
	c-10.587-4.2-23.226-4.121-37.409,2.484c8.126,11.993,15.918,1.707,31.515,2.424c0.201,0.126,0.402,0.253,0.603,0.382
	c0.129,0.201,0.256,0.402,0.382,0.603c0.718,15.598-9.569,23.389,2.424,31.515C168.206,1515.239,168.286,1502.599,164.085,1492.013z
	 M132.51,102.433c-10.276,9.324-5.239,24.444,4.849,31.515c5.84,0.992,5.27-4.427,12.121-2.424
	C159.429,119.902,153.283,97.694,132.51,102.433z M102.433,1523.588c9.324,10.276,24.444,5.239,31.515-4.849
	c0.992-5.84-4.427-5.27-2.424-12.121C119.902,1496.669,97.694,1502.815,102.433,1523.588z M1523.588,1553.665
	c10.276-9.324,5.239-24.444-4.849-31.515c-5.84-0.991-5.27,4.427-12.121,2.424
	C1496.669,1536.196,1502.815,1558.404,1523.588,1553.665z M1553.665,132.51c-9.324-10.276-24.444-5.239-31.515,4.849
	c-0.991,5.84,4.427,5.27,2.424,12.121C1536.196,159.429,1558.404,153.283,1553.665,132.51z M1506.618,131.524
	c6.851-2.002,6.281,3.416,12.121,2.424c10.087-7.072,15.125-22.192,4.849-31.515C1502.815,97.694,1496.669,119.902,1506.618,131.524
	z M131.524,149.48c-2.002-6.851,3.416-6.281,2.424-12.121c-7.072-10.087-22.192-15.125-31.515-4.849
	C97.694,153.283,119.902,159.429,131.524,149.48z M149.48,1524.574c-6.851,2.002-6.281-3.416-12.121-2.424
	c-10.087,7.072-15.125,22.192-4.849,31.515C153.283,1558.404,159.429,1536.196,149.48,1524.574z M1524.574,1506.618
	c2.002,6.851-3.416,6.281-2.424,12.121c7.072,10.087,22.192,15.125,31.515,4.849
	C1558.404,1502.815,1536.196,1496.669,1524.574,1506.618z M149.066,149.066c-0.787-4.579-3.06-8.525-6.859-10.269
	c-1.108,0.028-2.155,0.118-3.142,0.268c-0.149,0.987-0.239,2.034-0.268,3.142C140.542,146.006,144.488,148.279,149.066,149.066z
	 M1507.032,149.066c4.579-0.787,8.525-3.06,10.269-6.859c-0.028-1.108-0.118-2.155-0.268-3.142
	c-0.987-0.149-2.034-0.239-3.142-0.268C1510.092,140.542,1507.819,144.488,1507.032,149.066z M1507.032,1507.032
	c0.787,4.579,3.06,8.525,6.859,10.269c1.108-0.028,2.155-0.118,3.142-0.268c0.149-0.987,0.239-2.034,0.268-3.142
	C1515.557,1510.092,1511.611,1507.819,1507.032,1507.032z M149.066,1507.032c-4.579,0.787-8.525,3.06-10.269,6.859
	c0.028,1.108,0.118,2.155,0.268,3.142c0.987,0.149,2.034,0.239,3.142,0.268C146.006,1515.557,148.279,1511.611,149.066,1507.032z
	 M112.792,112.792c5.115-2.486,9.12-6.082,7.597-15.207c-4.458-6.856-14.618-8.007-26.667-7.273
	c-0.412,0.795-0.758,1.584-1.043,2.366c-0.782,0.285-1.571,0.631-2.366,1.043c-0.735,12.049,0.417,22.209,7.273,26.667
	C106.709,121.912,110.305,117.907,112.792,112.792z M1543.306,112.792c2.486,5.115,6.082,9.12,15.207,7.597
	c6.856-4.458,8.007-14.618,7.273-26.667c-0.795-0.412-1.584-0.758-2.366-1.043c-0.285-0.782-0.631-1.571-1.043-2.366
	c-12.049-0.735-22.209,0.417-26.667,7.273C1534.186,106.709,1538.191,110.305,1543.306,112.792z M1543.306,1543.306
	c-5.115,2.486-9.12,6.082-7.597,15.207c4.458,6.856,14.618,8.007,26.667,7.273c0.412-0.795,0.758-1.584,1.043-2.366
	c0.782-0.285,1.571-0.631,2.366-1.043c0.735-12.049-0.417-22.209-7.273-26.667
	C1549.389,1534.186,1545.793,1538.191,1543.306,1543.306z M112.792,1543.306c-2.486-5.115-6.082-9.12-15.207-7.597
	c-6.856,4.458-8.007,14.618-7.273,26.667c0.795,0.412,1.584,0.758,2.366,1.043c0.285,0.782,0.631,1.571,1.043,2.366
	c12.049,0.735,22.209-0.417,26.667-7.273C121.912,1549.389,117.907,1545.793,112.792,1543.306z M828.049,248.538
	c-5.477-0.682-11.061-1.698-16.748-3.074c-26.652-6.451-51.023-27.04-75.152-38.788c-9.132,7.362-17.809-1.932-26.667-2.424
	c-12.003,0.928-10.664,15.195-14.546,24.243c-21.215-8.684-18.657-41.142-48.485-41.212c-0.041-10.546-0.802-21.811,2.424-29.091
	c-5.738-5.576-21.758-0.868-31.515-2.424c-3.668,9.438-6.635,36.674,7.273,36.364c-14.79,7.025-15.246,28.39-21.818,43.637
	c-39.649,20.434-120.932,34.921-162.425-2.424c-1.927,15.261-29.387,18.958-41.212,9.697c-3.149-21.901-13.971-36.131-29.091-46.061
	c3.222-9.707,19.93-5.93,26.667-12.121c4.579-6.349-5.629-14.112-4.849-24.243c-22.221,2.832-56.012-5.91-70.303,4.849
	c7.035,9.127,27.03,5.295,36.364,12.121c-3.312,13.658-18.272,15.668-24.243,26.667c-2.965,11.047,6.65,9.513,4.849,19.394
	c-26.693,0.126-57.254,40.887-65.455-2.424c-12.433,3.263-25.135,8.212-38.172,13.723c-5.511,13.036-10.461,25.739-13.723,38.172
	c43.312,8.201,2.55,38.761,2.424,65.455c-9.881,1.801-8.347-7.813-19.394-4.849c-10.999,5.971-13.009,20.931-26.667,24.243
	c-6.827-9.333-2.994-29.329-12.121-36.364c-10.759,14.291-2.017,48.083-4.849,70.303c10.131-0.781,17.893,9.428,24.243,4.849
	c6.192-6.737,2.415-23.445,12.121-26.667c9.93,15.12,24.16,25.942,46.061,29.091c9.261,11.826,5.564,39.285-9.697,41.212
	c37.346,41.494,22.858,122.776,2.424,162.425c-15.246,6.572-36.611,7.028-43.637,21.818c0.31-13.908-26.926-10.941-36.364-7.273
	c1.556,9.758-3.152,25.777,2.424,31.515c7.28-3.227,18.546-2.465,29.091-2.424c0.07,29.828,32.529,27.27,41.212,48.485
	c-9.047,3.881-23.314,2.543-24.243,14.546c0.492,8.858,9.787,17.535,2.424,26.667c11.748,24.129,32.337,48.5,38.788,75.152
	c1.376,5.686,2.392,11.271,3.074,16.748c-0.682,5.477-1.698,11.061-3.074,16.747c-6.451,26.652-27.04,51.023-38.788,75.152
	c7.362,9.132-1.932,17.809-2.424,26.667c0.928,12.003,15.195,10.664,24.243,14.546c-8.684,21.215-41.142,18.657-41.212,48.485
	c-10.546,0.041-21.811,0.802-29.091-2.424c-5.576,5.738-0.868,21.758-2.424,31.515c9.438,3.668,36.674,6.635,36.364-7.273
	c7.025,14.79,28.39,15.246,43.637,21.818c20.434,39.649,34.921,120.932-2.424,162.425c15.261,1.927,18.958,29.387,9.697,41.212
	c-21.901,3.149-36.131,13.971-46.061,29.091c-9.707-3.222-5.93-19.93-12.121-26.667c-6.349-4.579-14.112,5.629-24.243,4.849
	c2.832,22.221-5.91,56.012,4.849,70.303c9.127-7.035,5.295-27.031,12.121-36.364c13.658,3.312,15.668,18.272,26.667,24.243
	c11.047,2.965,9.513-6.65,19.394-4.849c0.126,26.693,40.887,57.254-2.424,65.455c3.263,12.432,8.212,25.135,13.723,38.172
	c13.036,5.511,25.739,10.461,38.172,13.723c8.201-43.312,38.761-2.55,65.455-2.424c1.801,9.881-7.813,8.347-4.849,19.394
	c5.971,10.999,20.931,13.009,24.243,26.667c-9.333,6.827-29.329,2.994-36.364,12.121c14.291,10.759,48.083,2.017,70.303,4.849
	c-0.781-10.131,9.428-17.893,4.849-24.243c-6.737-6.192-23.445-2.415-26.667-12.121c15.12-9.93,25.942-24.16,29.091-46.061
	c11.826-9.261,39.285-5.564,41.212,9.697c41.494-37.346,122.776-22.858,162.425-2.424c6.572,15.246,7.028,36.611,21.818,43.637
	c-13.908-0.31-10.941,26.926-7.273,36.364c9.758-1.556,25.777,3.151,31.515-2.424c-3.227-7.28-2.465-18.546-2.424-29.091
	c29.828-0.07,27.27-32.529,48.485-41.212c3.881,9.047,2.543,23.314,14.546,24.243c8.858-0.492,17.535-9.787,26.667-2.424
	c24.129-11.748,48.5-32.337,75.152-38.788c5.686-1.376,11.271-2.392,16.748-3.074c5.477,0.682,11.061,1.698,16.747,3.074
	c26.652,6.451,51.023,27.04,75.152,38.788c9.132-7.362,17.809,1.932,26.667,2.424c12.003-0.928,10.664-15.195,14.546-24.243
	c21.215,8.684,18.657,41.142,48.485,41.212c0.041,10.546,0.802,21.811-2.424,29.091c5.738,5.576,21.758,0.868,31.515,2.424
	c3.668-9.438,6.635-36.674-7.273-36.364c14.79-7.026,15.246-28.39,21.818-43.637c39.649-20.434,120.932-34.921,162.425,2.424
	c1.927-15.261,29.387-18.958,41.212-9.697c3.149,21.901,13.971,36.131,29.091,46.061c-3.222,9.707-19.93,5.93-26.667,12.121
	c-4.579,6.349,5.629,14.112,4.849,24.243c22.221-2.832,56.012,5.91,70.303-4.849c-7.035-9.127-27.031-5.295-36.364-12.121
	c3.312-13.658,18.272-15.668,24.243-26.667c2.965-11.047-6.65-9.513-4.849-19.394c26.693-0.126,57.254-40.887,65.455,2.424
	c12.432-3.262,25.135-8.212,38.172-13.723c5.511-13.036,10.461-25.739,13.723-38.172c-43.312-8.201-2.55-38.761-2.424-65.455
	c9.881-1.801,8.347,7.813,19.394,4.849c10.999-5.971,13.009-20.931,26.667-24.243c6.827,9.333,2.994,29.329,12.121,36.364
	c10.759-14.291,2.017-48.083,4.849-70.303c-10.131,0.781-17.893-9.428-24.243-4.849c-6.192,6.737-2.415,23.445-12.121,26.667
	c-9.93-15.12-24.16-25.942-46.061-29.091c-9.261-11.826-5.564-39.285,9.697-41.212c-37.346-41.494-22.858-122.776-2.424-162.425
	c15.246-6.572,36.611-7.028,43.637-21.818c-0.31,13.908,26.926,10.941,36.364,7.273c-1.556-9.758,3.151-25.777-2.424-31.515
	c-7.28,3.227-18.546,2.465-29.091,2.424c-0.07-29.828-32.529-27.27-41.212-48.485c9.047-3.881,23.314-2.543,24.243-14.546
	c-0.492-8.858-9.787-17.535-2.424-26.667c-11.748-24.129-32.337-48.5-38.788-75.152c-1.376-5.686-2.392-11.271-3.074-16.747
	c0.682-5.477,1.698-11.061,3.074-16.748c6.451-26.652,27.04-51.023,38.788-75.152c-7.362-9.132,1.932-17.809,2.424-26.667
	c-0.928-12.003-15.195-10.664-24.243-14.546c8.684-21.215,41.142-18.657,41.212-48.485c10.546-0.041,21.811-0.802,29.091,2.424
	c5.576-5.738,0.868-21.758,2.424-31.515c-9.438-3.668-36.674-6.635-36.364,7.273c-7.026-14.79-28.39-15.246-43.637-21.818
	c-20.434-39.649-34.921-120.932,2.424-162.425c-15.261-1.927-18.958-29.387-9.697-41.212c21.901-3.149,36.131-13.971,46.061-29.091
	c9.707,3.222,5.93,19.93,12.121,26.667c6.349,4.579,14.112-5.629,24.243-4.849c-2.832-22.221,5.91-56.012-4.849-70.303
	c-9.127,7.035-5.295,27.03-12.121,36.364c-13.658-3.312-15.668-18.272-26.667-24.243c-11.047-2.965-9.513,6.65-19.394,4.849
	c-0.126-26.693-40.887-57.254,2.424-65.455c-3.262-12.433-8.212-25.135-13.723-38.172c-13.036-5.511-25.739-10.461-38.172-13.723
	c-8.201,43.312-38.761,2.55-65.455,2.424c-1.801-9.881,7.813-8.347,4.849-19.394c-5.971-10.999-20.931-13.009-24.243-26.667
	c9.333-6.827,29.329-2.994,36.364-12.121c-14.291-10.759-48.083-2.017-70.303-4.849c0.781,10.131-9.428,17.893-4.849,24.243
	c6.737,6.192,23.445,2.415,26.667,12.121c-15.12,9.93-25.942,24.16-29.091,46.061c-11.826,9.261-39.285,5.564-41.212-9.697
	c-41.494,37.346-122.776,22.858-162.425,2.424c-6.572-15.246-7.028-36.611-21.818-43.637c13.908,0.31,10.941-26.926,7.273-36.364
	c-9.758,1.556-25.777-3.152-31.515,2.424c3.227,7.28,2.465,18.546,2.424,29.091c-29.828,0.07-27.27,32.529-48.485,41.212
	c-3.881-9.047-2.543-23.314-14.546-24.243c-8.858,0.492-17.535,9.787-26.667,2.424c-24.129,11.748-48.5,32.337-75.152,38.788
	C839.11,246.84,833.526,247.856,828.049,248.538z M60.104,60.104c37.919-24.922,106.615-35.387,133.012,3.541
	c7.765-3.547,6.078-16.548,12.121-21.818c7.922,2.582,9.796,11.212,16.97,14.546c12.344-4.625,20.977-12.962,33.94-16.97
	c-5.098,9.447-1.215,27.877-2.424,41.212c11.918,10.587,31.566,21.287,21.818,46.061c31.123,7.246,41.668-12.647,65.455-29.091
	c41.081-28.4,95.404-60.786,162.425-63.031c80.682-2.701,137.783,41.118,191.516,87.273c28.197-3.702,53.651,4.858,75.152-4.849
	c-4.824-22.628-25.998-3.173-46.061-9.697c12.64-19.959,15.498-41.118,19.394-65.455c16.371-2.633,18.582,8.892,29.091,12.121
	c19.847-2.434,36.407-19.782,55.536-25.899c19.129,6.117,35.689,23.465,55.536,25.899c10.509-3.229,12.72-14.754,29.091-12.121
	c3.896,24.337,6.754,45.496,19.394,65.455c-20.063,6.524-41.237-12.931-46.061,9.697c21.501,9.707,46.955,1.147,75.152,4.849
	c53.734-46.155,110.835-89.974,191.516-87.273c67.021,2.245,121.344,34.63,162.425,63.031
	c23.787,16.444,34.332,36.337,65.455,29.091c-9.748-24.773,9.901-35.474,21.818-46.061c-1.21-13.336,2.674-31.765-2.424-41.212
	c12.963,4.007,21.595,12.344,33.94,16.97c7.173-3.333,9.047-11.964,16.97-14.546c6.044,5.27,4.356,18.272,12.121,21.818
	c26.396-38.927,95.093-28.463,133.012-3.541c24.922,37.919,35.387,106.615-3.541,133.012c3.547,7.765,16.548,6.078,21.818,12.121
	c-2.582,7.922-11.212,9.796-14.546,16.97c4.625,12.344,12.963,20.977,16.97,33.94c-9.447-5.098-27.877-1.215-41.212-2.424
	c-10.587,11.918-21.287,31.566-46.061,21.818c-7.246,31.123,12.647,41.668,29.091,65.455c28.4,41.081,60.786,95.404,63.031,162.425
	c2.701,80.682-41.118,137.783-87.273,191.516c3.702,28.197-4.858,53.651,4.849,75.152c22.628-4.824,3.173-25.998,9.697-46.061
	c19.959,12.64,41.118,15.498,65.455,19.394c2.633,16.371-8.892,18.582-12.121,29.091c2.434,19.847,19.782,36.407,25.899,55.536
	c-6.117,19.129-23.465,35.689-25.899,55.536c3.229,10.509,14.754,12.72,12.121,29.091c-24.337,3.896-45.496,6.754-65.455,19.394
	c-6.524-20.063,12.931-41.237-9.697-46.061c-9.707,21.501-1.147,46.955-4.849,75.152c46.155,53.734,89.974,110.835,87.273,191.516
	c-2.245,67.021-34.63,121.344-63.031,162.425c-16.444,23.787-36.337,34.332-29.091,65.455c24.773-9.748,35.474,9.901,46.061,21.818
	c13.336-1.21,31.765,2.674,41.212-2.424c-4.007,12.963-12.344,21.595-16.97,33.94c3.333,7.173,11.964,9.047,14.546,16.97
	c-5.27,6.044-18.272,4.356-21.818,12.121c38.927,26.396,28.463,95.093,3.541,133.012c-37.919,24.922-106.615,35.387-133.012-3.541
	c-7.765,3.547-6.078,16.548-12.121,21.818c-7.922-2.582-9.796-11.212-16.97-14.546c-12.344,4.625-20.977,12.963-33.94,16.97
	c5.098-9.447,1.215-27.877,2.424-41.212c-11.918-10.587-31.566-21.287-21.818-46.061c-31.123-7.246-41.668,12.647-65.455,29.091
	c-41.081,28.4-95.404,60.786-162.425,63.031c-80.682,2.701-137.783-41.118-191.516-87.273c-28.197,3.702-53.651-4.858-75.152,4.849
	c4.824,22.628,25.998,3.173,46.061,9.697c-12.64,19.959-15.498,41.118-19.394,65.455c-16.371,2.633-18.582-8.892-29.091-12.121
	c-19.847,2.434-36.407,19.782-55.536,25.899c-19.129-6.117-35.689-23.465-55.536-25.899c-10.509,3.229-12.72,14.754-29.091,12.121
	c-3.896-24.337-6.754-45.496-19.394-65.455c20.063-6.524,41.237,12.931,46.061-9.697c-21.501-9.707-46.955-1.147-75.152-4.849
	c-53.734,46.155-110.835,89.974-191.516,87.273c-67.021-2.245-121.344-34.63-162.425-63.031
	c-23.787-16.444-34.332-36.337-65.455-29.091c9.748,24.773-9.901,35.474-21.818,46.061c1.21,13.336-2.674,31.765,2.424,41.212
	c-12.962-4.007-21.595-12.344-33.94-16.97c-7.173,3.333-9.047,11.964-16.97,14.546c-6.044-5.27-4.356-18.272-12.121-21.818
	c-26.396,38.927-95.093,28.463-133.012,3.541c-24.922-37.919-35.387-106.615,3.541-133.012c-3.547-7.765-16.548-6.078-21.818-12.121
	c2.582-7.922,11.212-9.796,14.546-16.97c-4.625-12.344-12.962-20.977-16.97-33.94c9.447,5.098,27.877,1.215,41.212,2.424
	c10.587-11.918,21.287-31.566,46.061-21.818c7.246-31.123-12.647-41.668-29.091-65.455c-28.4-41.081-60.786-95.404-63.031-162.425
	c-2.701-80.682,41.118-137.783,87.273-191.516c-3.702-28.197,4.858-53.651-4.849-75.152c-22.628,4.824-3.173,25.998-9.697,46.061
	c-19.959-12.64-41.118-15.498-65.455-19.394c-2.633-16.371,8.892-18.582,12.121-29.091c-2.434-19.847-19.782-36.407-25.899-55.536
	c6.117-19.129,23.465-35.689,25.899-55.536c-3.229-10.509-14.754-12.72-12.121-29.091c24.337-3.896,45.496-6.754,65.455-19.394
	c6.524,20.063-12.931,41.237,9.697,46.061c9.707-21.501,1.147-46.955,4.849-75.152c-46.155-53.734-89.974-110.835-87.273-191.516
	c2.245-67.021,34.63-121.344,63.031-162.425c16.444-23.787,36.337-34.332,29.091-65.455c-24.773,9.748-35.474-9.901-46.061-21.818
	c-13.336,1.21-31.765-2.674-41.212,2.424c4.007-12.962,12.344-21.595,16.97-33.94c-3.333-7.173-11.964-9.047-14.546-16.97
	c5.27-6.044,18.272-4.356,21.818-12.121C24.718,166.72,35.183,98.023,60.104,60.104z"/>
</svg>
